<?xml version='1.0' encoding='iso-8859-1'?>
<!DOCTYPE svg PUBLIC '-//W3C//DTD SVG 1.1//EN' 'http://www.w3.org/Graphics/SVG/1.1/DTD/svg11.dtd'>
<svg version="1.1" xmlns="http://www.w3.org/2000/svg" viewBox="0 0 297 297" xmlns:xlink="http://www.w3.org/1999/xlink" enable-background="new 0 0 297 297">
  <g>
    <path d="m294.321,129.816l-140.255-126.371c-3.079-2.774-7.757-2.776-10.838-0.006l-140.543,126.371c-2.494,2.244-3.349,5.792-2.148,8.925 1.202,3.133 4.208,5.2 7.565,5.2h23.944l111.124-98.928c3.098-2.837 7.85-2.839 10.947,0.001l111.117,98.927h23.664c3.354,0 6.36-2.066 7.563-5.196 1.202-3.131 0.352-6.678-2.14-8.923z"/>
    <rect width="59.757" x="118.791" y="161.353" height="17.72"/>
    <rect width="19.752" x="138.793" y="127.937" height="13.164"/>
    <rect width="59.757" x="118.791" y="193.249" height="17.72"/>
    <rect width="59.757" x="118.791" y="226.664" height="16.708"/>
    <path d="m42.077,156.72v130.816c0,4.473 3.627,8.101 8.101,8.101h196.928c4.473,0 8.101-3.628 8.101-8.101v-130.816l-106.562-94.752-106.568,94.752zm136.72-38.909v23.29h9.877c5.592,0 10.125,4.534 10.125,10.126v100.246c0,5.593-4.533,10.126-10.125,10.126h-80.009c-5.593,0-10.126-4.533-10.126-10.126v-100.246c0-5.592 4.533-10.126 10.126-10.126h9.876v-23.29c0-5.592 4.534-10.126 10.126-10.126h40.004c5.592,0 10.126,4.534 10.126,10.126z"/>
  </g>
</svg>
