<?xml version="1.0" encoding="iso-8859-1"?>
<!-- Generator: Adobe Illustrator 19.0.0, SVG Export Plug-In . SVG Version: 6.00 Build 0)  -->
<svg version="1.1" id="Layer_1" xmlns="http://www.w3.org/2000/svg" xmlns:xlink="http://www.w3.org/1999/xlink" x="0px" y="0px"
	 viewBox="0 0 512.001 512.001" style="enable-background:new 0 0 512.001 512.001;" xml:space="preserve">
<g>
	<g>
		<path d="M508.479,242.144l-245.8-212.941c-3.833-3.321-9.524-3.321-13.357,0L3.522,242.144c-3.219,2.789-4.366,7.283-2.878,11.273
			c1.488,3.99,5.298,6.636,9.557,6.636h61.794v215.035c0,5.632,4.566,10.199,10.199,10.199h347.614
			c5.633,0,10.199-4.567,10.2-10.199V260.053h61.794c4.259,0,8.069-2.646,9.557-6.636
			C512.845,249.428,511.698,244.933,508.479,242.144z M429.807,239.655c-5.633,0-10.199,4.567-10.199,10.199v215.036H92.392V249.854
			c0-5.632-4.566-10.199-10.199-10.199H37.549L256,50.407l218.45,189.248H429.807z"/>
	</g>
</g>
<g>
	<g>
		<path d="M414.607,208.834l-66.701-58.638c-4.231-3.72-10.675-3.302-14.394,0.926c-3.719,4.23-3.305,10.676,0.926,14.394
			l66.701,58.638c1.938,1.703,4.339,2.539,6.73,2.539c2.831,0,5.648-1.172,7.664-3.465
			C419.252,218.998,418.838,212.552,414.607,208.834z"/>
	</g>
</g>
<g>
	<g>
		<path d="M324.306,129.448l-3.08-2.708c-4.231-3.721-10.675-3.306-14.394,0.925c-3.72,4.23-3.305,10.674,0.925,14.393l3.08,2.708
			c1.938,1.704,4.339,2.54,6.73,2.54c2.831,0,5.648-1.172,7.664-3.465C328.951,139.612,328.536,133.167,324.306,129.448z"/>
	</g>
</g>
<g>
	<g>
		<path d="M306.996,216.677c-19.711,0-38.182,8.487-50.996,22.847c-12.814-14.36-31.285-22.847-50.996-22.847
			c-37.68,0-68.335,30.655-68.335,68.335c0,36.557,39.85,70.649,61.26,88.964l0.443,0.379c12.618,10.796,50.588,43.506,50.97,43.834
			c1.913,1.648,4.285,2.472,6.657,2.472c2.371,0,4.744-0.824,6.657-2.472c0.381-0.329,38.352-33.038,50.969-43.834l0.444-0.379
			c21.409-18.316,61.26-52.407,61.26-88.964C375.331,247.332,344.676,216.677,306.996,216.677z M300.81,358.476l-0.445,0.379
			c-9.401,8.043-32.814,28.199-44.365,38.146c-11.552-9.947-34.965-30.102-44.365-38.146l-0.445-0.379
			c-17.567-15.029-54.122-46.3-54.122-73.464c0-26.432,21.504-47.936,47.936-47.936c17.506,0,33.62,9.547,42.054,24.919
			c1.791,3.264,5.218,5.292,8.942,5.292c3.724,0,7.151-2.029,8.942-5.292c8.434-15.371,24.548-24.919,42.054-24.919
			c26.432,0,47.936,21.504,47.936,47.936C354.932,312.176,318.378,343.448,300.81,358.476z"/>
	</g>
</g>
<g>
</g>
<g>
</g>
<g>
</g>
<g>
</g>
<g>
</g>
<g>
</g>
<g>
</g>
<g>
</g>
<g>
</g>
<g>
</g>
<g>
</g>
<g>
</g>
<g>
</g>
<g>
</g>
<g>
</g>
</svg>
